<svg version="1.1" xmlns="http://www.w3.org/2000/svg" xmlns:xlink="http://www.w3.org/1999/xlink" width="720" height="334"><defs/><g><text fill="#eeeeee" stroke="none" font-family="Arial" font-size="24px" font-style="normal" font-weight="normal" text-decoration="none" x="0" y="0">UNREGISTERED</text><text fill="#eeeeee" stroke="none" font-family="Arial" font-size="24px" font-style="normal" font-weight="normal" text-decoration="none" x="0" y="30">UNREGISTERED</text><text fill="#eeeeee" stroke="none" font-family="Arial" font-size="24px" font-style="normal" font-weight="normal" text-decoration="none" x="0" y="60">UNREGISTERED</text><text fill="#eeeeee" stroke="none" font-family="Arial" font-size="24px" font-style="normal" font-weight="normal" text-decoration="none" x="0" y="90">UNREGISTERED</text><text fill="#eeeeee" stroke="none" font-family="Arial" font-size="24px" font-style="normal" font-weight="normal" text-decoration="none" x="0" y="120">UNREGISTERED</text><text fill="#eeeeee" stroke="none" font-family="Arial" font-size="24px" font-style="normal" font-weight="normal" text-decoration="none" x="0" y="150">UNREGISTERED</text><text fill="#eeeeee" stroke="none" font-family="Arial" font-size="24px" font-style="normal" font-weight="normal" text-decoration="none" x="0" y="180">UNREGISTERED</text><text fill="#eeeeee" stroke="none" font-family="Arial" font-size="24px" font-style="normal" font-weight="normal" text-decoration="none" x="0" y="210">UNREGISTERED</text><text fill="#eeeeee" stroke="none" font-family="Arial" font-size="24px" font-style="normal" font-weight="normal" text-decoration="none" x="0" y="240">UNREGISTERED</text><text fill="#eeeeee" stroke="none" font-family="Arial" font-size="24px" font-style="normal" font-weight="normal" text-decoration="none" x="0" y="270">UNREGISTERED</text><text fill="#eeeeee" stroke="none" font-family="Arial" font-size="24px" font-style="normal" font-weight="normal" text-decoration="none" x="0" y="300">UNREGISTERED</text><text fill="#eeeeee" stroke="none" font-family="Arial" font-size="24px" font-style="normal" font-weight="normal" text-decoration="none" x="0" y="330">UNREGISTERED</text><text fill="#eeeeee" stroke="none" font-family="Arial" font-size="24px" font-style="normal" font-weight="normal" text-decoration="none" x="200" y="0">UNREGISTERED</text><text fill="#eeeeee" stroke="none" font-family="Arial" font-size="24px" font-style="normal" font-weight="normal" text-decoration="none" x="200" y="30">UNREGISTERED</text><text fill="#eeeeee" stroke="none" font-family="Arial" font-size="24px" font-style="normal" font-weight="normal" text-decoration="none" x="200" y="60">UNREGISTERED</text><text fill="#eeeeee" stroke="none" font-family="Arial" font-size="24px" font-style="normal" font-weight="normal" text-decoration="none" x="200" y="90">UNREGISTERED</text><text fill="#eeeeee" stroke="none" font-family="Arial" font-size="24px" font-style="normal" font-weight="normal" text-decoration="none" x="200" y="120">UNREGISTERED</text><text fill="#eeeeee" stroke="none" font-family="Arial" font-size="24px" font-style="normal" font-weight="normal" text-decoration="none" x="200" y="150">UNREGISTERED</text><text fill="#eeeeee" stroke="none" font-family="Arial" font-size="24px" font-style="normal" font-weight="normal" text-decoration="none" x="200" y="180">UNREGISTERED</text><text fill="#eeeeee" stroke="none" font-family="Arial" font-size="24px" font-style="normal" font-weight="normal" text-decoration="none" x="200" y="210">UNREGISTERED</text><text fill="#eeeeee" stroke="none" font-family="Arial" font-size="24px" font-style="normal" font-weight="normal" text-decoration="none" x="200" y="240">UNREGISTERED</text><text fill="#eeeeee" stroke="none" font-family="Arial" font-size="24px" font-style="normal" font-weight="normal" text-decoration="none" x="200" y="270">UNREGISTERED</text><text fill="#eeeeee" stroke="none" font-family="Arial" font-size="24px" font-style="normal" font-weight="normal" text-decoration="none" x="200" y="300">UNREGISTERED</text><text fill="#eeeeee" stroke="none" font-family="Arial" font-size="24px" font-style="normal" font-weight="normal" text-decoration="none" x="200" y="330">UNREGISTERED</text><text fill="#eeeeee" stroke="none" font-family="Arial" font-size="24px" font-style="normal" font-weight="normal" text-decoration="none" x="400" y="0">UNREGISTERED</text><text fill="#eeeeee" stroke="none" font-family="Arial" font-size="24px" font-style="normal" font-weight="normal" text-decoration="none" x="400" y="30">UNREGISTERED</text><text fill="#eeeeee" stroke="none" font-family="Arial" font-size="24px" font-style="normal" font-weight="normal" text-decoration="none" x="400" y="60">UNREGISTERED</text><text fill="#eeeeee" stroke="none" font-family="Arial" font-size="24px" font-style="normal" font-weight="normal" text-decoration="none" x="400" y="90">UNREGISTERED</text><text fill="#eeeeee" stroke="none" font-family="Arial" font-size="24px" font-style="normal" font-weight="normal" text-decoration="none" x="400" y="120">UNREGISTERED</text><text fill="#eeeeee" stroke="none" font-family="Arial" font-size="24px" font-style="normal" font-weight="normal" text-decoration="none" x="400" y="150">UNREGISTERED</text><text fill="#eeeeee" stroke="none" font-family="Arial" font-size="24px" font-style="normal" font-weight="normal" text-decoration="none" x="400" y="180">UNREGISTERED</text><text fill="#eeeeee" stroke="none" font-family="Arial" font-size="24px" font-style="normal" font-weight="normal" text-decoration="none" x="400" y="210">UNREGISTERED</text><text fill="#eeeeee" stroke="none" font-family="Arial" font-size="24px" font-style="normal" font-weight="normal" text-decoration="none" x="400" y="240">UNREGISTERED</text><text fill="#eeeeee" stroke="none" font-family="Arial" font-size="24px" font-style="normal" font-weight="normal" text-decoration="none" x="400" y="270">UNREGISTERED</text><text fill="#eeeeee" stroke="none" font-family="Arial" font-size="24px" font-style="normal" font-weight="normal" text-decoration="none" x="400" y="300">UNREGISTERED</text><text fill="#eeeeee" stroke="none" font-family="Arial" font-size="24px" font-style="normal" font-weight="normal" text-decoration="none" x="400" y="330">UNREGISTERED</text><text fill="#eeeeee" stroke="none" font-family="Arial" font-size="24px" font-style="normal" font-weight="normal" text-decoration="none" x="600" y="0">UNREGISTERED</text><text fill="#eeeeee" stroke="none" font-family="Arial" font-size="24px" font-style="normal" font-weight="normal" text-decoration="none" x="600" y="30">UNREGISTERED</text><text fill="#eeeeee" stroke="none" font-family="Arial" font-size="24px" font-style="normal" font-weight="normal" text-decoration="none" x="600" y="60">UNREGISTERED</text><text fill="#eeeeee" stroke="none" font-family="Arial" font-size="24px" font-style="normal" font-weight="normal" text-decoration="none" x="600" y="90">UNREGISTERED</text><text fill="#eeeeee" stroke="none" font-family="Arial" font-size="24px" font-style="normal" font-weight="normal" text-decoration="none" x="600" y="120">UNREGISTERED</text><text fill="#eeeeee" stroke="none" font-family="Arial" font-size="24px" font-style="normal" font-weight="normal" text-decoration="none" x="600" y="150">UNREGISTERED</text><text fill="#eeeeee" stroke="none" font-family="Arial" font-size="24px" font-style="normal" font-weight="normal" text-decoration="none" x="600" y="180">UNREGISTERED</text><text fill="#eeeeee" stroke="none" font-family="Arial" font-size="24px" font-style="normal" font-weight="normal" text-decoration="none" x="600" y="210">UNREGISTERED</text><text fill="#eeeeee" stroke="none" font-family="Arial" font-size="24px" font-style="normal" font-weight="normal" text-decoration="none" x="600" y="240">UNREGISTERED</text><text fill="#eeeeee" stroke="none" font-family="Arial" font-size="24px" font-style="normal" font-weight="normal" text-decoration="none" x="600" y="270">UNREGISTERED</text><text fill="#eeeeee" stroke="none" font-family="Arial" font-size="24px" font-style="normal" font-weight="normal" text-decoration="none" x="600" y="300">UNREGISTERED</text><text fill="#eeeeee" stroke="none" font-family="Arial" font-size="24px" font-style="normal" font-weight="normal" text-decoration="none" x="600" y="330">UNREGISTERED</text><g transform="translate(-174,-190) scale(1,1)"><path fill="#ffffff" stroke="none" d="M 217.30681125710228 297.68 C 217.30681125710228 292.886167936 221.19265358204774 289 225.986083984375 289 C 230.77951438670226 289 234.66535671164772 292.886167936 234.66535671164772 297.68 C 234.66535671164772 302.473832064 230.77951438670226 306.36 225.986083984375 306.36 C 221.19265358204774 306.36 217.30681125710228 302.473832064 217.30681125710228 297.68 Z"/></g><g transform="translate(-174,-190) scale(1,1)"><path fill="none" stroke="#000000" d="M 217.30681125710228 297.68 C 217.30681125710228 292.886167936 221.19265358204774 289 225.986083984375 289 C 230.77951438670226 289 234.66535671164772 292.886167936 234.66535671164772 297.68 C 234.66535671164772 302.473832064 230.77951438670226 306.36 225.986083984375 306.36 C 221.19265358204774 306.36 217.30681125710228 302.473832064 217.30681125710228 297.68 Z" stroke-miterlimit="10"/></g><g transform="translate(-174,-190) scale(1,1)"><path fill="none" stroke="#000000" d="M 225.986083984375 306.36 L 225.986083984375 323.64" stroke-miterlimit="10"/></g><g transform="translate(-174,-190) scale(1,1)"><path fill="none" stroke="#000000" d="M 216.79626580255683 312.84 L 235.17590216619317 312.84" stroke-miterlimit="10"/></g><g transform="translate(-174,-190) scale(1,1)"><path fill="none" stroke="#000000" d="M 225.986083984375 323.64 L 213.22244762073865 341" stroke-miterlimit="10"/></g><g transform="translate(-174,-190) scale(1,1)"><path fill="none" stroke="#000000" d="M 225.986083984375 323.64 L 238.74972034801135 341" stroke-miterlimit="10"/></g><g transform="translate(-174,-190) scale(1,1)"><g><path fill="none" stroke="none"/><text fill="#000000" stroke="none" font-family="Arial" font-size="13px" font-style="normal" font-weight="bold" text-decoration="none" x="191.353271484375" y="361.5">Người dùng</text></g></g><g transform="translate(-174,-190) scale(1,1)"><path fill="#C0C0C0" stroke="none" d="M 343 336 C 343 322.19288 368.5197664 311 400 311 C 431.4802336 311 457 322.19288 457 336 C 457 349.80712 431.4802336 361 400 361 C 368.5197664 361 343 349.80712 343 336 Z" opacity="0.2"/></g><g transform="translate(-174,-190) scale(1,1)"><path fill="#ffffff" stroke="none" d="M 336 329 C 336 315.19288 361.5197664 304 393 304 C 424.4802336 304 450 315.19288 450 329 C 450 342.80712 424.4802336 354 393 354 C 361.5197664 354 336 342.80712 336 329 Z"/></g><g transform="translate(-174,-190) scale(1,1)"><path fill="none" stroke="#000000" d="M 336 329 C 336 315.19288 361.5197664 304 393 304 C 424.4802336 304 450 315.19288 450 329 C 450 342.80712 424.4802336 354 393 354 C 361.5197664 354 336 342.80712 336 329 Z" stroke-miterlimit="10"/></g><g transform="translate(-174,-190) scale(1,1)"><g><path fill="none" stroke="none"/><text fill="#000000" stroke="none" font-family="Arial" font-size="13px" font-style="normal" font-weight="bold" text-decoration="none" x="359.763671875" y="336">QL PlayList</text></g></g><g transform="translate(-174,-190) scale(1,1)"><path fill="#C0C0C0" stroke="none" d="M 583 356 C 583 339.9837408 611.2060576 327 646 327 C 680.7939424 327 709 339.9837408 709 356 C 709 372.0162592 680.7939424 385 646 385 C 611.2060576 385 583 372.0162592 583 356 Z" opacity="0.2"/></g><g transform="translate(-174,-190) scale(1,1)"><path fill="#ffffff" stroke="none" d="M 576 349 C 576 332.9837408 604.2060576 320 639 320 C 673.7939424 320 702 332.9837408 702 349 C 702 365.0162592 673.7939424 378 639 378 C 604.2060576 378 576 365.0162592 576 349 Z"/></g><g transform="translate(-174,-190) scale(1,1)"><path fill="none" stroke="#000000" d="M 576 349 C 576 332.9837408 604.2060576 320 639 320 C 673.7939424 320 702 332.9837408 702 349 C 702 365.0162592 673.7939424 378 639 378 C 604.2060576 378 576 365.0162592 576 349 Z" stroke-miterlimit="10"/></g><g transform="translate(-174,-190) scale(1,1)"><g><path fill="none" stroke="none"/><text fill="#000000" stroke="none" font-family="Arial" font-size="13px" font-style="normal" font-weight="bold" text-decoration="none" x="601.063232421875" y="356">Thêm bài hát</text></g></g><g transform="translate(-174,-190) scale(1,1)"><path fill="#C0C0C0" stroke="none" d="M 591 232 C 591 218.19288 613.6096176 207 641.5 207 C 669.3903824 207 692 218.19288 692 232 C 692 245.80712 669.3903824 257 641.5 257 C 613.6096176 257 591 245.80712 591 232 Z" opacity="0.2"/></g><g transform="translate(-174,-190) scale(1,1)"><path fill="#ffffff" stroke="none" d="M 584 225 C 584 211.19288 606.6096176 200 634.5 200 C 662.3903824 200 685 211.19288 685 225 C 685 238.80712 662.3903824 250 634.5 250 C 606.6096176 250 584 238.80712 584 225 Z"/></g><g transform="translate(-174,-190) scale(1,1)"><path fill="none" stroke="#000000" d="M 584 225 C 584 211.19288 606.6096176 200 634.5 200 C 662.3903824 200 685 211.19288 685 225 C 685 238.80712 662.3903824 250 634.5 250 C 606.6096176 250 584 238.80712 584 225 Z" stroke-miterlimit="10"/></g><g transform="translate(-174,-190) scale(1,1)"><g><path fill="none" stroke="none"/><text fill="#000000" stroke="none" font-family="Arial" font-size="13px" font-style="normal" font-weight="bold" text-decoration="none" x="622.9345703125" y="232">Xóa</text></g></g><g transform="translate(-174,-190) scale(1,1)"><path fill="#C0C0C0" stroke="none" d="M 591 492 C 591 475.9837408 613.6096176 463 641.5 463 C 669.3903824 463 692 475.9837408 692 492 C 692 508.0162592 669.3903824 521 641.5 521 C 613.6096176 521 591 508.0162592 591 492 Z" opacity="0.2"/></g><g transform="translate(-174,-190) scale(1,1)"><path fill="#ffffff" stroke="none" d="M 584 485 C 584 468.9837408 606.6096176 456 634.5 456 C 662.3903824 456 685 468.9837408 685 485 C 685 501.0162592 662.3903824 514 634.5 514 C 606.6096176 514 584 501.0162592 584 485 Z"/></g><g transform="translate(-174,-190) scale(1,1)"><path fill="none" stroke="#000000" d="M 584 485 C 584 468.9837408 606.6096176 456 634.5 456 C 662.3903824 456 685 468.9837408 685 485 C 685 501.0162592 662.3903824 514 634.5 514 C 606.6096176 514 584 501.0162592 584 485 Z" stroke-miterlimit="10"/></g><g transform="translate(-174,-190) scale(1,1)"><g><path fill="none" stroke="none"/><text fill="#000000" stroke="none" font-family="Arial" font-size="13px" font-style="normal" font-weight="bold" text-decoration="none" x="610.648681640625" y="492">Sắp xếp</text></g></g><g transform="translate(-174,-190) scale(1,1)"><path fill="#C0C0C0" stroke="none" d="M 783 352 C 783 342.6111584 807.1766208 335 837 335 C 866.8233792 335 891 342.6111584 891 352 C 891 361.3888416 866.8233792 369 837 369 C 807.1766208 369 783 361.3888416 783 352 Z" opacity="0.2"/></g><g transform="translate(-174,-190) scale(1,1)"><path fill="#ffffff" stroke="none" d="M 776 345 C 776 335.6111584 800.1766208 328 830 328 C 859.8233792 328 884 335.6111584 884 345 C 884 354.3888416 859.8233792 362 830 362 C 800.1766208 362 776 354.3888416 776 345 Z"/></g><g transform="translate(-174,-190) scale(1,1)"><path fill="none" stroke="#000000" d="M 776 345 C 776 335.6111584 800.1766208 328 830 328 C 859.8233792 328 884 335.6111584 884 345 C 884 354.3888416 859.8233792 362 830 362 C 800.1766208 362 776 354.3888416 776 345 Z" stroke-miterlimit="10"/></g><g transform="translate(-174,-190) scale(1,1)"><g><path fill="none" stroke="none"/><text fill="#000000" stroke="none" font-family="Arial" font-size="13px" font-style="normal" font-weight="bold" text-decoration="none" x="798.195068359375" y="352">Đăng nhập</text></g></g><g transform="translate(-174,-190) scale(1,1)"><path fill="none" stroke="#000000" d="M 269 328 L 335 328" stroke-miterlimit="10"/></g><g transform="translate(-174,-190) scale(1,1)"><path fill="none" stroke="#000000" d="M 324.83732514237585 332.209517756016 L 335 328 L 324.83732514237585 323.790482243984" stroke-miterlimit="10"/></g><g transform="translate(-174,-190) scale(1,1)"><path fill="none" stroke="#000000" d="M 583 247 L 451 304" stroke-miterlimit="10" stroke-dasharray="3"/></g><g transform="translate(-174,-190) scale(1,1)"><path fill="none" stroke="#000000" d="M 458.6611647482756 296.10654988615374 L 451 304 L 461.9987736477514 303.8357494428346" stroke-miterlimit="10"/></g><g transform="translate(-174,-190) scale(1,1)"><g><path fill="none" stroke="none"/><text fill="#000000" stroke="none" font-family="Arial" font-size="13px" font-style="normal" font-weight="normal" text-decoration="none" x="502.5" y="308.5">«extend»</text></g></g><g transform="translate(-174,-190) scale(1,1)"><path fill="none" stroke="#000000" d="M 575 344 L 451 334" stroke-miterlimit="10" stroke-dasharray="3"/></g><g transform="translate(-174,-190) scale(1,1)"><path fill="none" stroke="#000000" d="M 461.4681666593574 330.62102281867453 L 451 334 L 460.79140930981237 339.0128139530327" stroke-miterlimit="10"/></g><g transform="translate(-174,-190) scale(1,1)"><g><path fill="none" stroke="none"/><text fill="#000000" stroke="none" font-family="Arial" font-size="13px" font-style="normal" font-weight="normal" text-decoration="none" x="483.5" y="374.5">«extend»</text></g></g><g transform="translate(-174,-190) scale(1,1)"><path fill="none" stroke="#000000" d="M 588 455 L 433 355" stroke-miterlimit="10" stroke-dasharray="3"/></g><g transform="translate(-174,-190) scale(1,1)"><path fill="none" stroke="#000000" d="M 443.82175430438383 356.9722154485628 L 433 355 L 439.2575689353249 364.04670277060416" stroke-miterlimit="10"/></g><g transform="translate(-174,-190) scale(1,1)"><g><path fill="none" stroke="none"/><text fill="#000000" stroke="none" font-family="Arial" font-size="13px" font-style="normal" font-weight="normal" text-decoration="none" x="466.5" y="436.5">«extend»</text></g></g><g transform="translate(-174,-190) scale(1,1)"><path fill="none" stroke="#000000" d="M 676 251 L 801 327" stroke-miterlimit="10" stroke-dasharray="3"/></g><g transform="translate(-174,-190) scale(1,1)"><path fill="none" stroke="#000000" d="M 790.1294760950818 325.31723143819397 L 801 327 L 794.5032758930025 318.1234817705613" stroke-miterlimit="10"/></g><g transform="translate(-174,-190) scale(1,1)"><g><path fill="none" stroke="none"/><text fill="#000000" stroke="none" font-family="Arial" font-size="13px" font-style="normal" font-weight="normal" text-decoration="none" x="725.5" y="269.5">«include»</text></g></g><g transform="translate(-174,-190) scale(1,1)"><path fill="none" stroke="#000000" d="M 703 348 L 775 346" stroke-miterlimit="10" stroke-dasharray="3"/></g><g transform="translate(-174,-190) scale(1,1)"><path fill="none" stroke="#000000" d="M 764.9581296224949 350.49008232902077 L 775 346 L 764.7243576973333 342.0742930232062" stroke-miterlimit="10"/></g><g transform="translate(-174,-190) scale(1,1)"><g><path fill="none" stroke="none"/><text fill="#000000" stroke="none" font-family="Arial" font-size="13px" font-style="normal" font-weight="normal" text-decoration="none" x="710.5" y="323.5">«include»</text></g></g><g transform="translate(-174,-190) scale(1,1)"><path fill="none" stroke="#000000" d="M 676 455 L 805 363" stroke-miterlimit="10" stroke-dasharray="3"/></g><g transform="translate(-174,-190) scale(1,1)"><path fill="none" stroke="#000000" d="M 799.1701784512342 372.3280855865255 L 805 363 L 794.2817410760395 365.4736462234809" stroke-miterlimit="10"/></g><g transform="translate(-174,-190) scale(1,1)"><g><path fill="none" stroke="none"/><text fill="#000000" stroke="none" font-family="Arial" font-size="13px" font-style="normal" font-weight="normal" text-decoration="none" x="694.5" y="390.5">«include»</text></g></g></g></svg>