<svg version="1.1" xmlns="http://www.w3.org/2000/svg" xmlns:xlink="http://www.w3.org/1999/xlink" width="785" height="268"><defs/><g><text fill="#eeeeee" stroke="none" font-family="Arial" font-size="24px" font-style="normal" font-weight="normal" text-decoration="none" x="0" y="0">UNREGISTERED</text><text fill="#eeeeee" stroke="none" font-family="Arial" font-size="24px" font-style="normal" font-weight="normal" text-decoration="none" x="0" y="30">UNREGISTERED</text><text fill="#eeeeee" stroke="none" font-family="Arial" font-size="24px" font-style="normal" font-weight="normal" text-decoration="none" x="0" y="60">UNREGISTERED</text><text fill="#eeeeee" stroke="none" font-family="Arial" font-size="24px" font-style="normal" font-weight="normal" text-decoration="none" x="0" y="90">UNREGISTERED</text><text fill="#eeeeee" stroke="none" font-family="Arial" font-size="24px" font-style="normal" font-weight="normal" text-decoration="none" x="0" y="120">UNREGISTERED</text><text fill="#eeeeee" stroke="none" font-family="Arial" font-size="24px" font-style="normal" font-weight="normal" text-decoration="none" x="0" y="150">UNREGISTERED</text><text fill="#eeeeee" stroke="none" font-family="Arial" font-size="24px" font-style="normal" font-weight="normal" text-decoration="none" x="0" y="180">UNREGISTERED</text><text fill="#eeeeee" stroke="none" font-family="Arial" font-size="24px" font-style="normal" font-weight="normal" text-decoration="none" x="0" y="210">UNREGISTERED</text><text fill="#eeeeee" stroke="none" font-family="Arial" font-size="24px" font-style="normal" font-weight="normal" text-decoration="none" x="0" y="240">UNREGISTERED</text><text fill="#eeeeee" stroke="none" font-family="Arial" font-size="24px" font-style="normal" font-weight="normal" text-decoration="none" x="200" y="0">UNREGISTERED</text><text fill="#eeeeee" stroke="none" font-family="Arial" font-size="24px" font-style="normal" font-weight="normal" text-decoration="none" x="200" y="30">UNREGISTERED</text><text fill="#eeeeee" stroke="none" font-family="Arial" font-size="24px" font-style="normal" font-weight="normal" text-decoration="none" x="200" y="60">UNREGISTERED</text><text fill="#eeeeee" stroke="none" font-family="Arial" font-size="24px" font-style="normal" font-weight="normal" text-decoration="none" x="200" y="90">UNREGISTERED</text><text fill="#eeeeee" stroke="none" font-family="Arial" font-size="24px" font-style="normal" font-weight="normal" text-decoration="none" x="200" y="120">UNREGISTERED</text><text fill="#eeeeee" stroke="none" font-family="Arial" font-size="24px" font-style="normal" font-weight="normal" text-decoration="none" x="200" y="150">UNREGISTERED</text><text fill="#eeeeee" stroke="none" font-family="Arial" font-size="24px" font-style="normal" font-weight="normal" text-decoration="none" x="200" y="180">UNREGISTERED</text><text fill="#eeeeee" stroke="none" font-family="Arial" font-size="24px" font-style="normal" font-weight="normal" text-decoration="none" x="200" y="210">UNREGISTERED</text><text fill="#eeeeee" stroke="none" font-family="Arial" font-size="24px" font-style="normal" font-weight="normal" text-decoration="none" x="200" y="240">UNREGISTERED</text><text fill="#eeeeee" stroke="none" font-family="Arial" font-size="24px" font-style="normal" font-weight="normal" text-decoration="none" x="400" y="0">UNREGISTERED</text><text fill="#eeeeee" stroke="none" font-family="Arial" font-size="24px" font-style="normal" font-weight="normal" text-decoration="none" x="400" y="30">UNREGISTERED</text><text fill="#eeeeee" stroke="none" font-family="Arial" font-size="24px" font-style="normal" font-weight="normal" text-decoration="none" x="400" y="60">UNREGISTERED</text><text fill="#eeeeee" stroke="none" font-family="Arial" font-size="24px" font-style="normal" font-weight="normal" text-decoration="none" x="400" y="90">UNREGISTERED</text><text fill="#eeeeee" stroke="none" font-family="Arial" font-size="24px" font-style="normal" font-weight="normal" text-decoration="none" x="400" y="120">UNREGISTERED</text><text fill="#eeeeee" stroke="none" font-family="Arial" font-size="24px" font-style="normal" font-weight="normal" text-decoration="none" x="400" y="150">UNREGISTERED</text><text fill="#eeeeee" stroke="none" font-family="Arial" font-size="24px" font-style="normal" font-weight="normal" text-decoration="none" x="400" y="180">UNREGISTERED</text><text fill="#eeeeee" stroke="none" font-family="Arial" font-size="24px" font-style="normal" font-weight="normal" text-decoration="none" x="400" y="210">UNREGISTERED</text><text fill="#eeeeee" stroke="none" font-family="Arial" font-size="24px" font-style="normal" font-weight="normal" text-decoration="none" x="400" y="240">UNREGISTERED</text><text fill="#eeeeee" stroke="none" font-family="Arial" font-size="24px" font-style="normal" font-weight="normal" text-decoration="none" x="600" y="0">UNREGISTERED</text><text fill="#eeeeee" stroke="none" font-family="Arial" font-size="24px" font-style="normal" font-weight="normal" text-decoration="none" x="600" y="30">UNREGISTERED</text><text fill="#eeeeee" stroke="none" font-family="Arial" font-size="24px" font-style="normal" font-weight="normal" text-decoration="none" x="600" y="60">UNREGISTERED</text><text fill="#eeeeee" stroke="none" font-family="Arial" font-size="24px" font-style="normal" font-weight="normal" text-decoration="none" x="600" y="90">UNREGISTERED</text><text fill="#eeeeee" stroke="none" font-family="Arial" font-size="24px" font-style="normal" font-weight="normal" text-decoration="none" x="600" y="120">UNREGISTERED</text><text fill="#eeeeee" stroke="none" font-family="Arial" font-size="24px" font-style="normal" font-weight="normal" text-decoration="none" x="600" y="150">UNREGISTERED</text><text fill="#eeeeee" stroke="none" font-family="Arial" font-size="24px" font-style="normal" font-weight="normal" text-decoration="none" x="600" y="180">UNREGISTERED</text><text fill="#eeeeee" stroke="none" font-family="Arial" font-size="24px" font-style="normal" font-weight="normal" text-decoration="none" x="600" y="210">UNREGISTERED</text><text fill="#eeeeee" stroke="none" font-family="Arial" font-size="24px" font-style="normal" font-weight="normal" text-decoration="none" x="600" y="240">UNREGISTERED</text><g transform="translate(-70,-126) scale(1,1)"><path fill="#ffffff" stroke="none" d="M 113.30681125710228 225.68 C 113.30681125710228 220.886167936 117.19265358204774 217 121.986083984375 217 C 126.77951438670226 217 130.66535671164772 220.886167936 130.66535671164772 225.68 C 130.66535671164772 230.47383206400002 126.77951438670226 234.36 121.986083984375 234.36 C 117.19265358204774 234.36 113.30681125710228 230.47383206400002 113.30681125710228 225.68 Z"/></g><g transform="translate(-70,-126) scale(1,1)"><path fill="none" stroke="#000000" d="M 113.30681125710228 225.68 C 113.30681125710228 220.886167936 117.19265358204774 217 121.986083984375 217 C 126.77951438670226 217 130.66535671164772 220.886167936 130.66535671164772 225.68 C 130.66535671164772 230.47383206400002 126.77951438670226 234.36 121.986083984375 234.36 C 117.19265358204774 234.36 113.30681125710228 230.47383206400002 113.30681125710228 225.68 Z" stroke-miterlimit="10"/></g><g transform="translate(-70,-126) scale(1,1)"><path fill="none" stroke="#000000" d="M 121.986083984375 234.36 L 121.986083984375 251.64" stroke-miterlimit="10"/></g><g transform="translate(-70,-126) scale(1,1)"><path fill="none" stroke="#000000" d="M 112.79626580255683 240.84 L 131.17590216619317 240.84" stroke-miterlimit="10"/></g><g transform="translate(-70,-126) scale(1,1)"><path fill="none" stroke="#000000" d="M 121.986083984375 251.64 L 109.22244762073865 269" stroke-miterlimit="10"/></g><g transform="translate(-70,-126) scale(1,1)"><path fill="none" stroke="#000000" d="M 121.986083984375 251.64 L 134.74972034801135 269" stroke-miterlimit="10"/></g><g transform="translate(-70,-126) scale(1,1)"><g><path fill="none" stroke="none"/><text fill="#000000" stroke="none" font-family="Arial" font-size="13px" font-style="normal" font-weight="bold" text-decoration="none" x="87.353271484375" y="289.5">Người dùng</text></g></g><g transform="translate(-70,-126) scale(1,1)"><path fill="#C0C0C0" stroke="none" d="M 311 167 C 311 153.7451648 353.9806592 143 407 143 C 460.0193408 143 503 153.7451648 503 167 C 503 180.2548352 460.0193408 191 407 191 C 353.9806592 191 311 180.2548352 311 167 Z" opacity="0.2"/></g><g transform="translate(-70,-126) scale(1,1)"><path fill="#ffffff" stroke="none" d="M 304 160 C 304 146.7451648 346.9806592 136 400 136 C 453.0193408 136 496 146.7451648 496 160 C 496 173.2548352 453.0193408 184 400 184 C 346.9806592 184 304 173.2548352 304 160 Z"/></g><g transform="translate(-70,-126) scale(1,1)"><path fill="none" stroke="#000000" d="M 304 160 C 304 146.7451648 346.9806592 136 400 136 C 453.0193408 136 496 146.7451648 496 160 C 496 173.2548352 453.0193408 184 400 184 C 346.9806592 184 304 173.2548352 304 160 Z" stroke-miterlimit="10"/></g><g transform="translate(-70,-126) scale(1,1)"><g><path fill="none" stroke="none"/><text fill="#000000" stroke="none" font-family="Arial" font-size="13px" font-style="normal" font-weight="bold" text-decoration="none" x="341.10009765625" y="167">QL bài hát trong kho</text></g></g><g transform="translate(-70,-126) scale(1,1)"><path fill="#C0C0C0" stroke="none" d="M 335 263 C 335 249.7451648 359.1766208 239 389 239 C 418.8233792 239 443 249.7451648 443 263 C 443 276.2548352 418.8233792 287 389 287 C 359.1766208 287 335 276.2548352 335 263 Z" opacity="0.2"/></g><g transform="translate(-70,-126) scale(1,1)"><path fill="#ffffff" stroke="none" d="M 328 256 C 328 242.7451648 352.1766208 232 382 232 C 411.8233792 232 436 242.7451648 436 256 C 436 269.2548352 411.8233792 280 382 280 C 352.1766208 280 328 269.2548352 328 256 Z"/></g><g transform="translate(-70,-126) scale(1,1)"><path fill="none" stroke="#000000" d="M 328 256 C 328 242.7451648 352.1766208 232 382 232 C 411.8233792 232 436 242.7451648 436 256 C 436 269.2548352 411.8233792 280 382 280 C 352.1766208 280 328 269.2548352 328 256 Z" stroke-miterlimit="10"/></g><g transform="translate(-70,-126) scale(1,1)"><g><path fill="none" stroke="none"/><text fill="#000000" stroke="none" font-family="Arial" font-size="13px" font-style="normal" font-weight="bold" text-decoration="none" x="350.9345703125" y="263">QL Playlist</text></g></g><g transform="translate(-70,-126) scale(1,1)"><path fill="#C0C0C0" stroke="none" d="M 343 367 C 343 353.7451648 366.0573328 343 394.5 343 C 422.9426672 343 446 353.7451648 446 367 C 446 380.2548352 422.9426672 391 394.5 391 C 366.0573328 391 343 380.2548352 343 367 Z" opacity="0.2"/></g><g transform="translate(-70,-126) scale(1,1)"><path fill="#ffffff" stroke="none" d="M 336 360 C 336 346.7451648 359.0573328 336 387.5 336 C 415.9426672 336 439 346.7451648 439 360 C 439 373.2548352 415.9426672 384 387.5 384 C 359.0573328 384 336 373.2548352 336 360 Z"/></g><g transform="translate(-70,-126) scale(1,1)"><path fill="none" stroke="#000000" d="M 336 360 C 336 346.7451648 359.0573328 336 387.5 336 C 415.9426672 336 439 346.7451648 439 360 C 439 373.2548352 415.9426672 384 387.5 384 C 359.0573328 384 336 373.2548352 336 360 Z" stroke-miterlimit="10"/></g><g transform="translate(-70,-126) scale(1,1)"><g><path fill="none" stroke="none"/><text fill="#000000" stroke="none" font-family="Arial" font-size="13px" font-style="normal" font-weight="bold" text-decoration="none" x="357.58349609375" y="367">Chơi nhạc</text></g></g><g transform="translate(-70,-126) scale(1,1)"><path fill="#C0C0C0" stroke="none" d="M 591 251 C 591 235.5360256 615.1766208 223 645 223 C 674.8233792 223 699 235.5360256 699 251 C 699 266.4639744 674.8233792 279 645 279 C 615.1766208 279 591 266.4639744 591 251 Z" opacity="0.2"/></g><g transform="translate(-70,-126) scale(1,1)"><path fill="#ffffff" stroke="none" d="M 584 244 C 584 228.5360256 608.1766208 216 638 216 C 667.8233792 216 692 228.5360256 692 244 C 692 259.4639744 667.8233792 272 638 272 C 608.1766208 272 584 259.4639744 584 244 Z"/></g><g transform="translate(-70,-126) scale(1,1)"><path fill="none" stroke="#000000" d="M 584 244 C 584 228.5360256 608.1766208 216 638 216 C 667.8233792 216 692 228.5360256 692 244 C 692 259.4639744 667.8233792 272 638 272 C 608.1766208 272 584 259.4639744 584 244 Z" stroke-miterlimit="10"/></g><g transform="translate(-70,-126) scale(1,1)"><g><path fill="none" stroke="none"/><text fill="#000000" stroke="none" font-family="Arial" font-size="13px" font-style="normal" font-weight="bold" text-decoration="none" x="606.195068359375" y="251">Đăng nhập</text></g></g><g transform="translate(-70,-126) scale(1,1)"><path fill="#C0C0C0" stroke="none" d="M 751 251 C 751 235.5360256 773.6096176 223 801.5 223 C 829.3903824 223 852 235.5360256 852 251 C 852 266.4639744 829.3903824 279 801.5 279 C 773.6096176 279 751 266.4639744 751 251 Z" opacity="0.2"/></g><g transform="translate(-70,-126) scale(1,1)"><path fill="#ffffff" stroke="none" d="M 744 244 C 744 228.5360256 766.6096176 216 794.5 216 C 822.3903824 216 845 228.5360256 845 244 C 845 259.4639744 822.3903824 272 794.5 272 C 766.6096176 272 744 259.4639744 744 244 Z"/></g><g transform="translate(-70,-126) scale(1,1)"><path fill="none" stroke="#000000" d="M 744 244 C 744 228.5360256 766.6096176 216 794.5 216 C 822.3903824 216 845 228.5360256 845 244 C 845 259.4639744 822.3903824 272 794.5 272 C 766.6096176 272 744 259.4639744 744 244 Z" stroke-miterlimit="10"/></g><g transform="translate(-70,-126) scale(1,1)"><g><path fill="none" stroke="none"/><text fill="#000000" stroke="none" font-family="Arial" font-size="13px" font-style="normal" font-weight="bold" text-decoration="none" x="770.655029296875" y="251">Đăng ký</text></g></g><g transform="translate(-70,-126) scale(1,1)"><path fill="none" stroke="#000000" d="M 165 240 L 327 185" stroke-miterlimit="10"/></g><g transform="translate(-70,-126) scale(1,1)"><path fill="none" stroke="#000000" d="M 318.7300997397525 192.25318893215658 L 327 185 L 316.0235183670875 184.28107652539774" stroke-miterlimit="10"/></g><g transform="translate(-70,-126) scale(1,1)"><path fill="none" stroke="#000000" d="M 165 255 L 327 256" stroke-miterlimit="10"/></g><g transform="translate(-70,-126) scale(1,1)"><path fill="none" stroke="#000000" d="M 316.8115345733967 260.14670619298136 L 327 256 L 316.8635029383188 251.7278310756095" stroke-miterlimit="10"/></g><g transform="translate(-70,-126) scale(1,1)"><path fill="none" stroke="#000000" d="M 165 272 L 335 339" stroke-miterlimit="10"/></g><g transform="translate(-70,-126) scale(1,1)"><path fill="none" stroke="#000000" d="M 324.00164110282634 339.1900041288008 L 335 339 L 327.0886326339566 331.3573390498136" stroke-miterlimit="10"/></g><g transform="translate(-70,-126) scale(1,1)"><path fill="none" stroke="#000000" d="M 471 185 L 583 225" stroke-miterlimit="10" stroke-dasharray="3"/></g><g transform="translate(-70,-126) scale(1,1)"><path fill="none" stroke="#000000" d="M 572.0135691175061 225.54620185296585 L 583 225 L 574.8451971878225 217.61764325608004" stroke-miterlimit="10"/></g><g transform="translate(-70,-126) scale(1,1)"><g><path fill="none" stroke="none"/><text fill="#000000" stroke="none" font-family="Arial" font-size="13px" font-style="normal" font-weight="normal" text-decoration="none" x="509.5" y="182.5">«include»</text></g></g><g transform="translate(-70,-126) scale(1,1)"><path fill="none" stroke="#000000" d="M 437 253 L 583 247" stroke-miterlimit="10" stroke-dasharray="3"/></g><g transform="translate(-70,-126) scale(1,1)"><path fill="none" stroke="#000000" d="M 573.0187440000162 251.62325952795078 L 583 247 L 572.6730480342533 243.21132436105185" stroke-miterlimit="10"/></g><g transform="translate(-70,-126) scale(1,1)"><g><path fill="none" stroke="none"/><text fill="#000000" stroke="none" font-family="Arial" font-size="13px" font-style="normal" font-weight="normal" text-decoration="none" x="480.5" y="226.5">«include»</text></g></g><g transform="translate(-70,-126) scale(1,1)"><path fill="none" stroke="#000000" d="M 440 336 L 583 269" stroke-miterlimit="10" stroke-dasharray="3"/></g><g transform="translate(-70,-126) scale(1,1)"><path fill="none" stroke="#000000" d="M 575.5833214746672 277.12360016568186 L 583 269 L 572.0113635560547 269.4998690856583" stroke-miterlimit="10"/></g><g transform="translate(-70,-126) scale(1,1)"><g><path fill="none" stroke="none"/><text fill="#000000" stroke="none" font-family="Arial" font-size="13px" font-style="normal" font-weight="normal" text-decoration="none" x="470.5" y="280.5">«include»</text></g></g><g transform="translate(-70,-126) scale(1,1)"><path fill="none" stroke="#000000" d="M 693 244 L 743 244" stroke-miterlimit="10" stroke-dasharray="3"/></g><g transform="translate(-70,-126) scale(1,1)"><path fill="none" stroke="#000000" d="M 732.8373251423759 248.209517756016 L 743 244 L 732.8373251423758 239.790482243984" stroke-miterlimit="10"/></g><g transform="translate(-70,-126) scale(1,1)"><g><path fill="none" stroke="none"/><text fill="#000000" stroke="none" font-family="Arial" font-size="13px" font-style="normal" font-weight="normal" text-decoration="none" x="690.5" y="220.5">«include»</text></g></g></g></svg>