<svg version="1.1" xmlns="http://www.w3.org/2000/svg" xmlns:xlink="http://www.w3.org/1999/xlink" width="712" height="238"><defs/><g><text fill="#eeeeee" stroke="none" font-family="Arial" font-size="24px" font-style="normal" font-weight="normal" text-decoration="none" x="0" y="0">UNREGISTERED</text><text fill="#eeeeee" stroke="none" font-family="Arial" font-size="24px" font-style="normal" font-weight="normal" text-decoration="none" x="0" y="30">UNREGISTERED</text><text fill="#eeeeee" stroke="none" font-family="Arial" font-size="24px" font-style="normal" font-weight="normal" text-decoration="none" x="0" y="60">UNREGISTERED</text><text fill="#eeeeee" stroke="none" font-family="Arial" font-size="24px" font-style="normal" font-weight="normal" text-decoration="none" x="0" y="90">UNREGISTERED</text><text fill="#eeeeee" stroke="none" font-family="Arial" font-size="24px" font-style="normal" font-weight="normal" text-decoration="none" x="0" y="120">UNREGISTERED</text><text fill="#eeeeee" stroke="none" font-family="Arial" font-size="24px" font-style="normal" font-weight="normal" text-decoration="none" x="0" y="150">UNREGISTERED</text><text fill="#eeeeee" stroke="none" font-family="Arial" font-size="24px" font-style="normal" font-weight="normal" text-decoration="none" x="0" y="180">UNREGISTERED</text><text fill="#eeeeee" stroke="none" font-family="Arial" font-size="24px" font-style="normal" font-weight="normal" text-decoration="none" x="0" y="210">UNREGISTERED</text><text fill="#eeeeee" stroke="none" font-family="Arial" font-size="24px" font-style="normal" font-weight="normal" text-decoration="none" x="200" y="0">UNREGISTERED</text><text fill="#eeeeee" stroke="none" font-family="Arial" font-size="24px" font-style="normal" font-weight="normal" text-decoration="none" x="200" y="30">UNREGISTERED</text><text fill="#eeeeee" stroke="none" font-family="Arial" font-size="24px" font-style="normal" font-weight="normal" text-decoration="none" x="200" y="60">UNREGISTERED</text><text fill="#eeeeee" stroke="none" font-family="Arial" font-size="24px" font-style="normal" font-weight="normal" text-decoration="none" x="200" y="90">UNREGISTERED</text><text fill="#eeeeee" stroke="none" font-family="Arial" font-size="24px" font-style="normal" font-weight="normal" text-decoration="none" x="200" y="120">UNREGISTERED</text><text fill="#eeeeee" stroke="none" font-family="Arial" font-size="24px" font-style="normal" font-weight="normal" text-decoration="none" x="200" y="150">UNREGISTERED</text><text fill="#eeeeee" stroke="none" font-family="Arial" font-size="24px" font-style="normal" font-weight="normal" text-decoration="none" x="200" y="180">UNREGISTERED</text><text fill="#eeeeee" stroke="none" font-family="Arial" font-size="24px" font-style="normal" font-weight="normal" text-decoration="none" x="200" y="210">UNREGISTERED</text><text fill="#eeeeee" stroke="none" font-family="Arial" font-size="24px" font-style="normal" font-weight="normal" text-decoration="none" x="400" y="0">UNREGISTERED</text><text fill="#eeeeee" stroke="none" font-family="Arial" font-size="24px" font-style="normal" font-weight="normal" text-decoration="none" x="400" y="30">UNREGISTERED</text><text fill="#eeeeee" stroke="none" font-family="Arial" font-size="24px" font-style="normal" font-weight="normal" text-decoration="none" x="400" y="60">UNREGISTERED</text><text fill="#eeeeee" stroke="none" font-family="Arial" font-size="24px" font-style="normal" font-weight="normal" text-decoration="none" x="400" y="90">UNREGISTERED</text><text fill="#eeeeee" stroke="none" font-family="Arial" font-size="24px" font-style="normal" font-weight="normal" text-decoration="none" x="400" y="120">UNREGISTERED</text><text fill="#eeeeee" stroke="none" font-family="Arial" font-size="24px" font-style="normal" font-weight="normal" text-decoration="none" x="400" y="150">UNREGISTERED</text><text fill="#eeeeee" stroke="none" font-family="Arial" font-size="24px" font-style="normal" font-weight="normal" text-decoration="none" x="400" y="180">UNREGISTERED</text><text fill="#eeeeee" stroke="none" font-family="Arial" font-size="24px" font-style="normal" font-weight="normal" text-decoration="none" x="400" y="210">UNREGISTERED</text><text fill="#eeeeee" stroke="none" font-family="Arial" font-size="24px" font-style="normal" font-weight="normal" text-decoration="none" x="600" y="0">UNREGISTERED</text><text fill="#eeeeee" stroke="none" font-family="Arial" font-size="24px" font-style="normal" font-weight="normal" text-decoration="none" x="600" y="30">UNREGISTERED</text><text fill="#eeeeee" stroke="none" font-family="Arial" font-size="24px" font-style="normal" font-weight="normal" text-decoration="none" x="600" y="60">UNREGISTERED</text><text fill="#eeeeee" stroke="none" font-family="Arial" font-size="24px" font-style="normal" font-weight="normal" text-decoration="none" x="600" y="90">UNREGISTERED</text><text fill="#eeeeee" stroke="none" font-family="Arial" font-size="24px" font-style="normal" font-weight="normal" text-decoration="none" x="600" y="120">UNREGISTERED</text><text fill="#eeeeee" stroke="none" font-family="Arial" font-size="24px" font-style="normal" font-weight="normal" text-decoration="none" x="600" y="150">UNREGISTERED</text><text fill="#eeeeee" stroke="none" font-family="Arial" font-size="24px" font-style="normal" font-weight="normal" text-decoration="none" x="600" y="180">UNREGISTERED</text><text fill="#eeeeee" stroke="none" font-family="Arial" font-size="24px" font-style="normal" font-weight="normal" text-decoration="none" x="600" y="210">UNREGISTERED</text><g transform="translate(-102,-182) scale(1,1)"><path fill="#ffffff" stroke="none" d="M 145.30681125710228 273.68 C 145.30681125710228 268.886167936 149.19265358204774 265 153.986083984375 265 C 158.77951438670226 265 162.66535671164772 268.886167936 162.66535671164772 273.68 C 162.66535671164772 278.473832064 158.77951438670226 282.36 153.986083984375 282.36 C 149.19265358204774 282.36 145.30681125710228 278.473832064 145.30681125710228 273.68 Z"/></g><g transform="translate(-102,-182) scale(1,1)"><path fill="none" stroke="#000000" d="M 145.30681125710228 273.68 C 145.30681125710228 268.886167936 149.19265358204774 265 153.986083984375 265 C 158.77951438670226 265 162.66535671164772 268.886167936 162.66535671164772 273.68 C 162.66535671164772 278.473832064 158.77951438670226 282.36 153.986083984375 282.36 C 149.19265358204774 282.36 145.30681125710228 278.473832064 145.30681125710228 273.68 Z" stroke-miterlimit="10"/></g><g transform="translate(-102,-182) scale(1,1)"><path fill="none" stroke="#000000" d="M 153.986083984375 282.36 L 153.986083984375 299.64" stroke-miterlimit="10"/></g><g transform="translate(-102,-182) scale(1,1)"><path fill="none" stroke="#000000" d="M 144.79626580255683 288.84 L 163.17590216619317 288.84" stroke-miterlimit="10"/></g><g transform="translate(-102,-182) scale(1,1)"><path fill="none" stroke="#000000" d="M 153.986083984375 299.64 L 141.22244762073865 317" stroke-miterlimit="10"/></g><g transform="translate(-102,-182) scale(1,1)"><path fill="none" stroke="#000000" d="M 153.986083984375 299.64 L 166.74972034801135 317" stroke-miterlimit="10"/></g><g transform="translate(-102,-182) scale(1,1)"><g><path fill="none" stroke="none"/><text fill="#000000" stroke="none" font-family="Arial" font-size="13px" font-style="normal" font-weight="bold" text-decoration="none" x="119.353271484375" y="337.5">Người dùng</text></g></g><g transform="translate(-102,-182) scale(1,1)"><path fill="#C0C0C0" stroke="none" d="M 239 292 C 239 275.9837408 293.1735392 263 360 263 C 426.8264608 263 481 275.9837408 481 292 C 481 308.0162592 426.8264608 321 360 321 C 293.1735392 321 239 308.0162592 239 292 Z" opacity="0.2"/></g><g transform="translate(-102,-182) scale(1,1)"><path fill="#ffffff" stroke="none" d="M 232 285 C 232 268.9837408 286.1735392 256 353 256 C 419.8264608 256 474 268.9837408 474 285 C 474 301.0162592 419.8264608 314 353 314 C 286.1735392 314 232 301.0162592 232 285 Z"/></g><g transform="translate(-102,-182) scale(1,1)"><path fill="none" stroke="#000000" d="M 232 285 C 232 268.9837408 286.1735392 256 353 256 C 419.8264608 256 474 268.9837408 474 285 C 474 301.0162592 419.8264608 314 353 314 C 286.1735392 314 232 301.0162592 232 285 Z" stroke-miterlimit="10"/></g><g transform="translate(-102,-182) scale(1,1)"><g><path fill="none" stroke="none"/><text fill="#000000" stroke="none" font-family="Arial" font-size="13px" font-style="normal" font-weight="bold" text-decoration="none" x="277.462890625" y="292">QL bài hát trong kho chứa</text></g></g><g transform="translate(-102,-182) scale(1,1)"><path fill="#C0C0C0" stroke="none" d="M 527 216 C 527 206.6111584 557.220776 199 594.5 199 C 631.779224 199 662 206.6111584 662 216 C 662 225.3888416 631.779224 233 594.5 233 C 557.220776 233 527 225.3888416 527 216 Z" opacity="0.2"/></g><g transform="translate(-102,-182) scale(1,1)"><path fill="#ffffff" stroke="none" d="M 520 209 C 520 199.6111584 550.220776 192 587.5 192 C 624.779224 192 655 199.6111584 655 209 C 655 218.3888416 624.779224 226 587.5 226 C 550.220776 226 520 218.3888416 520 209 Z"/></g><g transform="translate(-102,-182) scale(1,1)"><path fill="none" stroke="#000000" d="M 520 209 C 520 199.6111584 550.220776 192 587.5 192 C 624.779224 192 655 199.6111584 655 209 C 655 218.3888416 624.779224 226 587.5 226 C 550.220776 226 520 218.3888416 520 209 Z" stroke-miterlimit="10"/></g><g transform="translate(-102,-182) scale(1,1)"><g><path fill="none" stroke="none"/><text fill="#000000" stroke="none" font-family="Arial" font-size="13px" font-style="normal" font-weight="bold" text-decoration="none" x="546.668701171875" y="216">Tải bài hát lên</text></g></g><g transform="translate(-102,-182) scale(1,1)"><path fill="#C0C0C0" stroke="none" d="M 495 400 C 495 390.6111584 517.6096176 383 545.5 383 C 573.3903824 383 596 390.6111584 596 400 C 596 409.3888416 573.3903824 417 545.5 417 C 517.6096176 417 495 409.3888416 495 400 Z" opacity="0.2"/></g><g transform="translate(-102,-182) scale(1,1)"><path fill="#ffffff" stroke="none" d="M 488 393 C 488 383.6111584 510.6096176 376 538.5 376 C 566.3903824 376 589 383.6111584 589 393 C 589 402.3888416 566.3903824 410 538.5 410 C 510.6096176 410 488 402.3888416 488 393 Z"/></g><g transform="translate(-102,-182) scale(1,1)"><path fill="none" stroke="#000000" d="M 488 393 C 488 383.6111584 510.6096176 376 538.5 376 C 566.3903824 376 589 383.6111584 589 393 C 589 402.3888416 566.3903824 410 538.5 410 C 510.6096176 410 488 402.3888416 488 393 Z" stroke-miterlimit="10"/></g><g transform="translate(-102,-182) scale(1,1)"><g><path fill="none" stroke="none"/><text fill="#000000" stroke="none" font-family="Arial" font-size="13px" font-style="normal" font-weight="bold" text-decoration="none" x="525.128662109375" y="400">Xóa </text></g></g><g transform="translate(-102,-182) scale(1,1)"><path fill="#C0C0C0" stroke="none" d="M 703 304 C 703 294.6111584 727.1766208 287 757 287 C 786.8233792 287 811 294.6111584 811 304 C 811 313.3888416 786.8233792 321 757 321 C 727.1766208 321 703 313.3888416 703 304 Z" opacity="0.2"/></g><g transform="translate(-102,-182) scale(1,1)"><path fill="#ffffff" stroke="none" d="M 696 297 C 696 287.6111584 720.1766208 280 750 280 C 779.8233792 280 804 287.6111584 804 297 C 804 306.3888416 779.8233792 314 750 314 C 720.1766208 314 696 306.3888416 696 297 Z"/></g><g transform="translate(-102,-182) scale(1,1)"><path fill="none" stroke="#000000" d="M 696 297 C 696 287.6111584 720.1766208 280 750 280 C 779.8233792 280 804 287.6111584 804 297 C 804 306.3888416 779.8233792 314 750 314 C 720.1766208 314 696 306.3888416 696 297 Z" stroke-miterlimit="10"/></g><g transform="translate(-102,-182) scale(1,1)"><g><path fill="none" stroke="none"/><text fill="#000000" stroke="none" font-family="Arial" font-size="13px" font-style="normal" font-weight="bold" text-decoration="none" x="718.195068359375" y="304">Đăng nhập</text></g></g><g transform="translate(-102,-182) scale(1,1)"><path fill="none" stroke="#000000" d="M 197 299 L 231 296" stroke-miterlimit="10"/></g><g transform="translate(-102,-182) scale(1,1)"><path fill="none" stroke="#000000" d="M 221.24664677330455 301.08646250701895 L 231 296 L 220.5066656631317 292.7000099250602" stroke-miterlimit="10"/></g><g transform="translate(-102,-182) scale(1,1)"><path fill="none" stroke="#000000" d="M 532 227 L 445 255" stroke-miterlimit="10" stroke-dasharray="3"/></g><g transform="translate(-102,-182) scale(1,1)"><path fill="none" stroke="#000000" d="M 453.3843572029005 247.87942739000786 L 445 255 L 455.9636410125179 255.8936306556046" stroke-miterlimit="10"/></g><g transform="translate(-102,-182) scale(1,1)"><g><path fill="none" stroke="none"/><text fill="#000000" stroke="none" font-family="Arial" font-size="13px" font-style="normal" font-weight="normal" text-decoration="none" x="470.5" y="275.5">«extend»</text></g></g><g transform="translate(-102,-182) scale(1,1)"><path fill="none" stroke="#000000" d="M 507 375 L 404 315" stroke-miterlimit="10" stroke-dasharray="3"/></g><g transform="translate(-102,-182) scale(1,1)"><path fill="none" stroke="#000000" d="M 414.90025264838465 316.47800277448454 L 404 315 L 410.66253677986884 323.75274834876996" stroke-miterlimit="10"/></g><g transform="translate(-102,-182) scale(1,1)"><g><path fill="none" stroke="none"/><text fill="#000000" stroke="none" font-family="Arial" font-size="13px" font-style="normal" font-weight="normal" text-decoration="none" x="412.5" y="376.5">«extend»</text></g></g><g transform="translate(-102,-182) scale(1,1)"><path fill="none" stroke="#000000" d="M 620 227 L 717 279" stroke-miterlimit="10" stroke-dasharray="3"/></g><g transform="translate(-102,-182) scale(1,1)"><path fill="none" stroke="#000000" d="M 706.0542930331013 277.9084419416336 L 717 279 L 710.0320644839547 270.4883682736954" stroke-miterlimit="10"/></g><g transform="translate(-102,-182) scale(1,1)"><g><path fill="none" stroke="none"/><text fill="#000000" stroke="none" font-family="Arial" font-size="13px" font-style="normal" font-weight="normal" text-decoration="none" x="654.5" y="232.5">«include»</text></g></g><g transform="translate(-102,-182) scale(1,1)"><path fill="none" stroke="#000000" d="M 578 375 L 710 315" stroke-miterlimit="10" stroke-dasharray="3"/></g><g transform="translate(-102,-182) scale(1,1)"><path fill="none" stroke="#000000" d="M 702.4901523297945 323.03754862942105 L 710 315 L 699.0063306467393 315.37314092669993" stroke-miterlimit="10"/></g><g transform="translate(-102,-182) scale(1,1)"><g><path fill="none" stroke="none"/><text fill="#000000" stroke="none" font-family="Arial" font-size="13px" font-style="normal" font-weight="normal" text-decoration="none" x="603.5" y="323.5">«include»</text></g></g></g></svg>