<svg version="1.1" xmlns="http://www.w3.org/2000/svg" xmlns:xlink="http://www.w3.org/1999/xlink" width="784" height="358"><defs/><g><text fill="#eeeeee" stroke="none" font-family="Arial" font-size="24px" font-style="normal" font-weight="normal" text-decoration="none" x="0" y="0">UNREGISTERED</text><text fill="#eeeeee" stroke="none" font-family="Arial" font-size="24px" font-style="normal" font-weight="normal" text-decoration="none" x="0" y="30">UNREGISTERED</text><text fill="#eeeeee" stroke="none" font-family="Arial" font-size="24px" font-style="normal" font-weight="normal" text-decoration="none" x="0" y="60">UNREGISTERED</text><text fill="#eeeeee" stroke="none" font-family="Arial" font-size="24px" font-style="normal" font-weight="normal" text-decoration="none" x="0" y="90">UNREGISTERED</text><text fill="#eeeeee" stroke="none" font-family="Arial" font-size="24px" font-style="normal" font-weight="normal" text-decoration="none" x="0" y="120">UNREGISTERED</text><text fill="#eeeeee" stroke="none" font-family="Arial" font-size="24px" font-style="normal" font-weight="normal" text-decoration="none" x="0" y="150">UNREGISTERED</text><text fill="#eeeeee" stroke="none" font-family="Arial" font-size="24px" font-style="normal" font-weight="normal" text-decoration="none" x="0" y="180">UNREGISTERED</text><text fill="#eeeeee" stroke="none" font-family="Arial" font-size="24px" font-style="normal" font-weight="normal" text-decoration="none" x="0" y="210">UNREGISTERED</text><text fill="#eeeeee" stroke="none" font-family="Arial" font-size="24px" font-style="normal" font-weight="normal" text-decoration="none" x="0" y="240">UNREGISTERED</text><text fill="#eeeeee" stroke="none" font-family="Arial" font-size="24px" font-style="normal" font-weight="normal" text-decoration="none" x="0" y="270">UNREGISTERED</text><text fill="#eeeeee" stroke="none" font-family="Arial" font-size="24px" font-style="normal" font-weight="normal" text-decoration="none" x="0" y="300">UNREGISTERED</text><text fill="#eeeeee" stroke="none" font-family="Arial" font-size="24px" font-style="normal" font-weight="normal" text-decoration="none" x="0" y="330">UNREGISTERED</text><text fill="#eeeeee" stroke="none" font-family="Arial" font-size="24px" font-style="normal" font-weight="normal" text-decoration="none" x="200" y="0">UNREGISTERED</text><text fill="#eeeeee" stroke="none" font-family="Arial" font-size="24px" font-style="normal" font-weight="normal" text-decoration="none" x="200" y="30">UNREGISTERED</text><text fill="#eeeeee" stroke="none" font-family="Arial" font-size="24px" font-style="normal" font-weight="normal" text-decoration="none" x="200" y="60">UNREGISTERED</text><text fill="#eeeeee" stroke="none" font-family="Arial" font-size="24px" font-style="normal" font-weight="normal" text-decoration="none" x="200" y="90">UNREGISTERED</text><text fill="#eeeeee" stroke="none" font-family="Arial" font-size="24px" font-style="normal" font-weight="normal" text-decoration="none" x="200" y="120">UNREGISTERED</text><text fill="#eeeeee" stroke="none" font-family="Arial" font-size="24px" font-style="normal" font-weight="normal" text-decoration="none" x="200" y="150">UNREGISTERED</text><text fill="#eeeeee" stroke="none" font-family="Arial" font-size="24px" font-style="normal" font-weight="normal" text-decoration="none" x="200" y="180">UNREGISTERED</text><text fill="#eeeeee" stroke="none" font-family="Arial" font-size="24px" font-style="normal" font-weight="normal" text-decoration="none" x="200" y="210">UNREGISTERED</text><text fill="#eeeeee" stroke="none" font-family="Arial" font-size="24px" font-style="normal" font-weight="normal" text-decoration="none" x="200" y="240">UNREGISTERED</text><text fill="#eeeeee" stroke="none" font-family="Arial" font-size="24px" font-style="normal" font-weight="normal" text-decoration="none" x="200" y="270">UNREGISTERED</text><text fill="#eeeeee" stroke="none" font-family="Arial" font-size="24px" font-style="normal" font-weight="normal" text-decoration="none" x="200" y="300">UNREGISTERED</text><text fill="#eeeeee" stroke="none" font-family="Arial" font-size="24px" font-style="normal" font-weight="normal" text-decoration="none" x="200" y="330">UNREGISTERED</text><text fill="#eeeeee" stroke="none" font-family="Arial" font-size="24px" font-style="normal" font-weight="normal" text-decoration="none" x="400" y="0">UNREGISTERED</text><text fill="#eeeeee" stroke="none" font-family="Arial" font-size="24px" font-style="normal" font-weight="normal" text-decoration="none" x="400" y="30">UNREGISTERED</text><text fill="#eeeeee" stroke="none" font-family="Arial" font-size="24px" font-style="normal" font-weight="normal" text-decoration="none" x="400" y="60">UNREGISTERED</text><text fill="#eeeeee" stroke="none" font-family="Arial" font-size="24px" font-style="normal" font-weight="normal" text-decoration="none" x="400" y="90">UNREGISTERED</text><text fill="#eeeeee" stroke="none" font-family="Arial" font-size="24px" font-style="normal" font-weight="normal" text-decoration="none" x="400" y="120">UNREGISTERED</text><text fill="#eeeeee" stroke="none" font-family="Arial" font-size="24px" font-style="normal" font-weight="normal" text-decoration="none" x="400" y="150">UNREGISTERED</text><text fill="#eeeeee" stroke="none" font-family="Arial" font-size="24px" font-style="normal" font-weight="normal" text-decoration="none" x="400" y="180">UNREGISTERED</text><text fill="#eeeeee" stroke="none" font-family="Arial" font-size="24px" font-style="normal" font-weight="normal" text-decoration="none" x="400" y="210">UNREGISTERED</text><text fill="#eeeeee" stroke="none" font-family="Arial" font-size="24px" font-style="normal" font-weight="normal" text-decoration="none" x="400" y="240">UNREGISTERED</text><text fill="#eeeeee" stroke="none" font-family="Arial" font-size="24px" font-style="normal" font-weight="normal" text-decoration="none" x="400" y="270">UNREGISTERED</text><text fill="#eeeeee" stroke="none" font-family="Arial" font-size="24px" font-style="normal" font-weight="normal" text-decoration="none" x="400" y="300">UNREGISTERED</text><text fill="#eeeeee" stroke="none" font-family="Arial" font-size="24px" font-style="normal" font-weight="normal" text-decoration="none" x="400" y="330">UNREGISTERED</text><text fill="#eeeeee" stroke="none" font-family="Arial" font-size="24px" font-style="normal" font-weight="normal" text-decoration="none" x="600" y="0">UNREGISTERED</text><text fill="#eeeeee" stroke="none" font-family="Arial" font-size="24px" font-style="normal" font-weight="normal" text-decoration="none" x="600" y="30">UNREGISTERED</text><text fill="#eeeeee" stroke="none" font-family="Arial" font-size="24px" font-style="normal" font-weight="normal" text-decoration="none" x="600" y="60">UNREGISTERED</text><text fill="#eeeeee" stroke="none" font-family="Arial" font-size="24px" font-style="normal" font-weight="normal" text-decoration="none" x="600" y="90">UNREGISTERED</text><text fill="#eeeeee" stroke="none" font-family="Arial" font-size="24px" font-style="normal" font-weight="normal" text-decoration="none" x="600" y="120">UNREGISTERED</text><text fill="#eeeeee" stroke="none" font-family="Arial" font-size="24px" font-style="normal" font-weight="normal" text-decoration="none" x="600" y="150">UNREGISTERED</text><text fill="#eeeeee" stroke="none" font-family="Arial" font-size="24px" font-style="normal" font-weight="normal" text-decoration="none" x="600" y="180">UNREGISTERED</text><text fill="#eeeeee" stroke="none" font-family="Arial" font-size="24px" font-style="normal" font-weight="normal" text-decoration="none" x="600" y="210">UNREGISTERED</text><text fill="#eeeeee" stroke="none" font-family="Arial" font-size="24px" font-style="normal" font-weight="normal" text-decoration="none" x="600" y="240">UNREGISTERED</text><text fill="#eeeeee" stroke="none" font-family="Arial" font-size="24px" font-style="normal" font-weight="normal" text-decoration="none" x="600" y="270">UNREGISTERED</text><text fill="#eeeeee" stroke="none" font-family="Arial" font-size="24px" font-style="normal" font-weight="normal" text-decoration="none" x="600" y="300">UNREGISTERED</text><text fill="#eeeeee" stroke="none" font-family="Arial" font-size="24px" font-style="normal" font-weight="normal" text-decoration="none" x="600" y="330">UNREGISTERED</text><g transform="translate(-118,-134) scale(1,1)"><path fill="#ffffff" stroke="none" d="M 161.30681125710228 249.68 C 161.30681125710228 244.886167936 165.19265358204774 241 169.986083984375 241 C 174.77951438670226 241 178.66535671164772 244.886167936 178.66535671164772 249.68 C 178.66535671164772 254.47383206400002 174.77951438670226 258.36 169.986083984375 258.36 C 165.19265358204774 258.36 161.30681125710228 254.47383206400002 161.30681125710228 249.68 Z"/></g><g transform="translate(-118,-134) scale(1,1)"><path fill="none" stroke="#000000" d="M 161.30681125710228 249.68 C 161.30681125710228 244.886167936 165.19265358204774 241 169.986083984375 241 C 174.77951438670226 241 178.66535671164772 244.886167936 178.66535671164772 249.68 C 178.66535671164772 254.47383206400002 174.77951438670226 258.36 169.986083984375 258.36 C 165.19265358204774 258.36 161.30681125710228 254.47383206400002 161.30681125710228 249.68 Z" stroke-miterlimit="10"/></g><g transform="translate(-118,-134) scale(1,1)"><path fill="none" stroke="#000000" d="M 169.986083984375 258.36 L 169.986083984375 275.64" stroke-miterlimit="10"/></g><g transform="translate(-118,-134) scale(1,1)"><path fill="none" stroke="#000000" d="M 160.79626580255683 264.84 L 179.17590216619317 264.84" stroke-miterlimit="10"/></g><g transform="translate(-118,-134) scale(1,1)"><path fill="none" stroke="#000000" d="M 169.986083984375 275.64 L 157.22244762073865 293" stroke-miterlimit="10"/></g><g transform="translate(-118,-134) scale(1,1)"><path fill="none" stroke="#000000" d="M 169.986083984375 275.64 L 182.74972034801135 293" stroke-miterlimit="10"/></g><g transform="translate(-118,-134) scale(1,1)"><g><path fill="none" stroke="none"/><text fill="#000000" stroke="none" font-family="Arial" font-size="13px" font-style="normal" font-weight="bold" text-decoration="none" x="135.353271484375" y="313.5">Người dùng</text></g></g><g transform="translate(-118,-134) scale(1,1)"><path fill="#C0C0C0" stroke="none" d="M 271 288 C 271 274.19288 294.0573328 263 322.5 263 C 350.9426672 263 374 274.19288 374 288 C 374 301.80712 350.9426672 313 322.5 313 C 294.0573328 313 271 301.80712 271 288 Z" opacity="0.2"/></g><g transform="translate(-118,-134) scale(1,1)"><path fill="#ffffff" stroke="none" d="M 264 281 C 264 267.19288 287.0573328 256 315.5 256 C 343.9426672 256 367 267.19288 367 281 C 367 294.80712 343.9426672 306 315.5 306 C 287.0573328 306 264 294.80712 264 281 Z"/></g><g transform="translate(-118,-134) scale(1,1)"><path fill="none" stroke="#000000" d="M 264 281 C 264 267.19288 287.0573328 256 315.5 256 C 343.9426672 256 367 267.19288 367 281 C 367 294.80712 343.9426672 306 315.5 306 C 287.0573328 306 264 294.80712 264 281 Z" stroke-miterlimit="10"/></g><g transform="translate(-118,-134) scale(1,1)"><g><path fill="none" stroke="none"/><text fill="#000000" stroke="none" font-family="Arial" font-size="13px" font-style="normal" font-weight="bold" text-decoration="none" x="285.58349609375" y="288">Chơi nhạc</text></g></g><g transform="translate(-118,-134) scale(1,1)"><path fill="#C0C0C0" stroke="none" d="M 527 176 C 527 162.19288 551.624336 151 582 151 C 612.375664 151 637 162.19288 637 176 C 637 189.80712 612.375664 201 582 201 C 551.624336 201 527 189.80712 527 176 Z" opacity="0.2"/></g><g transform="translate(-118,-134) scale(1,1)"><path fill="#ffffff" stroke="none" d="M 520 169 C 520 155.19288 544.624336 144 575 144 C 605.375664 144 630 155.19288 630 169 C 630 182.80712 605.375664 194 575 194 C 544.624336 194 520 182.80712 520 169 Z"/></g><g transform="translate(-118,-134) scale(1,1)"><path fill="none" stroke="#000000" d="M 520 169 C 520 155.19288 544.624336 144 575 144 C 605.375664 144 630 155.19288 630 169 C 630 182.80712 605.375664 194 575 194 C 544.624336 194 520 182.80712 520 169 Z" stroke-miterlimit="10"/></g><g transform="translate(-118,-134) scale(1,1)"><g><path fill="none" stroke="none"/><text fill="#000000" stroke="none" font-family="Arial" font-size="13px" font-style="normal" font-weight="bold" text-decoration="none" x="542.119140625" y="176">Play/Pause</text></g></g><g transform="translate(-118,-134) scale(1,1)"><path fill="#C0C0C0" stroke="none" d="M 503 272 C 503 258.19288 528.0720512 247 559 247 C 589.9279488 247 615 258.19288 615 272 C 615 285.80712 589.9279488 297 559 297 C 528.0720512 297 503 285.80712 503 272 Z" opacity="0.2"/></g><g transform="translate(-118,-134) scale(1,1)"><path fill="#ffffff" stroke="none" d="M 496 265 C 496 251.19288 521.0720512 240 552 240 C 582.9279488 240 608 251.19288 608 265 C 608 278.80712 582.9279488 290 552 290 C 521.0720512 290 496 278.80712 496 265 Z"/></g><g transform="translate(-118,-134) scale(1,1)"><path fill="none" stroke="#000000" d="M 496 265 C 496 251.19288 521.0720512 240 552 240 C 582.9279488 240 608 251.19288 608 265 C 608 278.80712 582.9279488 290 552 290 C 521.0720512 290 496 278.80712 496 265 Z" stroke-miterlimit="10"/></g><g transform="translate(-118,-134) scale(1,1)"><g><path fill="none" stroke="none"/><text fill="#000000" stroke="none" font-family="Arial" font-size="13px" font-style="normal" font-weight="bold" text-decoration="none" x="519.115966796875" y="272">Chuyển bài</text></g></g><g transform="translate(-118,-134) scale(1,1)"><path fill="#C0C0C0" stroke="none" d="M 455 339 C 455 323.5360256 505.36796 311 567.5 311 C 629.63204 311 680 323.5360256 680 339 C 680 354.4639744 629.63204 367 567.5 367 C 505.36796 367 455 354.4639744 455 339 Z" opacity="0.2"/></g><g transform="translate(-118,-134) scale(1,1)"><path fill="#ffffff" stroke="none" d="M 448 332 C 448 316.5360256 498.36796 304 560.5 304 C 622.63204 304 673 316.5360256 673 332 C 673 347.4639744 622.63204 360 560.5 360 C 498.36796 360 448 347.4639744 448 332 Z"/></g><g transform="translate(-118,-134) scale(1,1)"><path fill="none" stroke="#000000" d="M 448 332 C 448 316.5360256 498.36796 304 560.5 304 C 622.63204 304 673 316.5360256 673 332 C 673 347.4639744 622.63204 360 560.5 360 C 498.36796 360 448 347.4639744 448 332 Z" stroke-miterlimit="10"/></g><g transform="translate(-118,-134) scale(1,1)"><g><path fill="none" stroke="none"/><text fill="#000000" stroke="none" font-family="Arial" font-size="13px" font-style="normal" font-weight="bold" text-decoration="none" x="490.393310546875" y="339">Chọn chế độ chuyển bài</text></g></g><g transform="translate(-118,-134) scale(1,1)"><path fill="#C0C0C0" stroke="none" d="M 479 464 C 479 450.19288 501.6096176 439 529.5 439 C 557.3903824 439 580 450.19288 580 464 C 580 477.80712 557.3903824 489 529.5 489 C 501.6096176 489 479 477.80712 479 464 Z" opacity="0.2"/></g><g transform="translate(-118,-134) scale(1,1)"><path fill="#ffffff" stroke="none" d="M 472 457 C 472 443.19288 494.6096176 432 522.5 432 C 550.3903824 432 573 443.19288 573 457 C 573 470.80712 550.3903824 482 522.5 482 C 494.6096176 482 472 470.80712 472 457 Z"/></g><g transform="translate(-118,-134) scale(1,1)"><path fill="none" stroke="#000000" d="M 472 457 C 472 443.19288 494.6096176 432 522.5 432 C 550.3903824 432 573 443.19288 573 457 C 573 470.80712 550.3903824 482 522.5 482 C 494.6096176 482 472 470.80712 472 457 Z" stroke-miterlimit="10"/></g><g transform="translate(-118,-134) scale(1,1)"><g><path fill="none" stroke="none"/><text fill="#000000" stroke="none" font-family="Arial" font-size="13px" font-style="normal" font-weight="bold" text-decoration="none" x="511.540771484375" y="464">Tua</text></g></g><g transform="translate(-118,-134) scale(1,1)"><path fill="#C0C0C0" stroke="none" d="M 791 348 C 791 331.9837408 815.1766208 319 845 319 C 874.8233792 319 899 331.9837408 899 348 C 899 364.0162592 874.8233792 377 845 377 C 815.1766208 377 791 364.0162592 791 348 Z" opacity="0.2"/></g><g transform="translate(-118,-134) scale(1,1)"><path fill="#ffffff" stroke="none" d="M 784 341 C 784 324.9837408 808.1766208 312 838 312 C 867.8233792 312 892 324.9837408 892 341 C 892 357.0162592 867.8233792 370 838 370 C 808.1766208 370 784 357.0162592 784 341 Z"/></g><g transform="translate(-118,-134) scale(1,1)"><path fill="none" stroke="#000000" d="M 784 341 C 784 324.9837408 808.1766208 312 838 312 C 867.8233792 312 892 324.9837408 892 341 C 892 357.0162592 867.8233792 370 838 370 C 808.1766208 370 784 357.0162592 784 341 Z" stroke-miterlimit="10"/></g><g transform="translate(-118,-134) scale(1,1)"><g><path fill="none" stroke="none"/><text fill="#000000" stroke="none" font-family="Arial" font-size="13px" font-style="normal" font-weight="bold" text-decoration="none" x="806.195068359375" y="348">Đăng nhập</text></g></g><g transform="translate(-118,-134) scale(1,1)"><path fill="none" stroke="#000000" d="M 213 280 L 263 280" stroke-miterlimit="10"/></g><g transform="translate(-118,-134) scale(1,1)"><path fill="none" stroke="#000000" d="M 252.83732514237585 284.209517756016 L 263 280 L 252.83732514237585 275.790482243984" stroke-miterlimit="10"/></g><g transform="translate(-118,-134) scale(1,1)"><path fill="none" stroke="#000000" d="M 519 193 L 368 258" stroke-miterlimit="10" stroke-dasharray="3"/></g><g transform="translate(-118,-134) scale(1,1)"><path fill="none" stroke="#000000" d="M 375.67017625029905 250.11530620192843 L 368 258 L 378.9989540916784 257.8483131872866" stroke-miterlimit="10"/></g><g transform="translate(-118,-134) scale(1,1)"><g><path fill="none" stroke="none"/><text fill="#000000" stroke="none" font-family="Arial" font-size="13px" font-style="normal" font-weight="normal" text-decoration="none" x="428.5" y="258.5">«extend»</text></g></g><g transform="translate(-118,-134) scale(1,1)"><path fill="none" stroke="#000000" d="M 495 269 L 368 277" stroke-miterlimit="10" stroke-dasharray="3"/></g><g transform="translate(-118,-134) scale(1,1)"><path fill="none" stroke="#000000" d="M 377.8779299352494 272.1599070056141 L 368 277 L 378.40721381920423 280.5622886633967" stroke-miterlimit="10"/></g><g transform="translate(-118,-134) scale(1,1)"><g><path fill="none" stroke="none"/><text fill="#000000" stroke="none" font-family="Arial" font-size="13px" font-style="normal" font-weight="normal" text-decoration="none" x="405.5" y="308.5">«extend»</text></g></g><g transform="translate(-118,-134) scale(1,1)"><path fill="none" stroke="#000000" d="M 447 308 L 368 292" stroke-miterlimit="10" stroke-dasharray="3"/></g><g transform="translate(-118,-134) scale(1,1)"><path fill="none" stroke="#000000" d="M 378.79603891090176 289.8915541661463 L 368 292 L 377.12484867073493 298.14305597697" stroke-miterlimit="10"/></g><g transform="translate(-118,-134) scale(1,1)"><g><path fill="none" stroke="none"/><text fill="#000000" stroke="none" font-family="Arial" font-size="13px" font-style="normal" font-weight="normal" text-decoration="none" x="373.5" y="335.5">«extend»</text></g></g><g transform="translate(-118,-134) scale(1,1)"><path fill="none" stroke="#000000" d="M 491 431 L 346 307" stroke-miterlimit="10" stroke-dasharray="3"/></g><g transform="translate(-118,-134) scale(1,1)"><path fill="none" stroke="#000000" d="M 356.45947499616875 310.4057866645637 L 346 307 L 350.98771085165436 316.8042205432298" stroke-miterlimit="10"/></g><g transform="translate(-118,-134) scale(1,1)"><g><path fill="none" stroke="none"/><text fill="#000000" stroke="none" font-family="Arial" font-size="13px" font-style="normal" font-weight="normal" text-decoration="none" x="371.5" y="397.5">«extend»</text></g></g><g transform="translate(-118,-134) scale(1,1)"><path fill="none" stroke="#000000" d="M 615 195 L 792 311" stroke-miterlimit="10" stroke-dasharray="3"/></g><g transform="translate(-118,-134) scale(1,1)"><path fill="none" stroke="#000000" d="M 781.1926705245593 308.9502123014153 L 792 311 L 785.8074828230606 301.9086452597366" stroke-miterlimit="10"/></g><g transform="translate(-118,-134) scale(1,1)"><g><path fill="none" stroke="none"/><text fill="#000000" stroke="none" font-family="Arial" font-size="13px" font-style="normal" font-weight="normal" text-decoration="none" x="691.5" y="233.5">«include»</text></g></g><g transform="translate(-118,-134) scale(1,1)"><path fill="none" stroke="#000000" d="M 609 280 L 783 326" stroke-miterlimit="10" stroke-dasharray="3"/></g><g transform="translate(-118,-134) scale(1,1)"><path fill="none" stroke="#000000" d="M 772.0989694328761 327.4722542493165 L 783 326 L 774.2507664007425 319.33284832738724" stroke-miterlimit="10"/></g><g transform="translate(-118,-134) scale(1,1)"><g><path fill="none" stroke="none"/><text fill="#000000" stroke="none" font-family="Arial" font-size="13px" font-style="normal" font-weight="normal" text-decoration="none" x="675.5" y="279.5">«include»</text></g></g><g transform="translate(-118,-134) scale(1,1)"><path fill="none" stroke="#000000" d="M 674 336 L 783 339" stroke-miterlimit="10" stroke-dasharray="3"/></g><g transform="translate(-118,-134) scale(1,1)"><path fill="none" stroke="#000000" d="M 772.7253577011993 342.92832351413375 L 783 339 L 772.9569865607134 334.51247495179047" stroke-miterlimit="10"/></g><g transform="translate(-118,-134) scale(1,1)"><g><path fill="none" stroke="none"/><text fill="#000000" stroke="none" font-family="Arial" font-size="13px" font-style="normal" font-weight="normal" text-decoration="none" x="701.5" y="313.5">«include»</text></g></g><g transform="translate(-118,-134) scale(1,1)"><path fill="none" stroke="#000000" d="M 574 438 L 783 361" stroke-miterlimit="10" stroke-dasharray="3"/></g><g transform="translate(-118,-134) scale(1,1)"><path fill="none" stroke="#000000" d="M 774.9191768452317 368.46326316977775 L 783 361 L 772.0086711525645 360.5633191468237" stroke-miterlimit="10"/></g><g transform="translate(-118,-134) scale(1,1)"><g><path fill="none" stroke="none"/><text fill="#000000" stroke="none" font-family="Arial" font-size="13px" font-style="normal" font-weight="normal" text-decoration="none" x="639.5" y="376.5">«include»</text></g></g></g></svg>